<svg xmlns="http://www.w3.org/2000/svg" viewBox="0 0 568.28 152"><g id="Capa_2" data-name="Capa 2"><g id="Capa_1-2" data-name="Capa 1"><path d="M224.58,73.43A8.06,8.06,0,0,0,221.13,70a11.27,11.27,0,0,0-5.28-1.17,10.88,10.88,0,0,0-8.42,3.45q-3.17,3.45-3.16,9.21,0,6.14,3.32,9.59t9.14,3.44a11.09,11.09,0,0,0,6.75-2,11.47,11.47,0,0,0,4-5.82H213.76v-8H237.3V88.81a21.18,21.18,0,0,1-4.08,7.53,21.52,21.52,0,0,1-7.31,5.63,22.66,22.66,0,0,1-10,2.15,23.67,23.67,0,0,1-11.74-2.88,20.55,20.55,0,0,1-8-8,23.5,23.5,0,0,1-2.88-11.71,23.67,23.67,0,0,1,2.88-11.74,20.51,20.51,0,0,1,8-8,23.5,23.5,0,0,1,11.71-2.88,22.79,22.79,0,0,1,13.45,3.86,18.19,18.19,0,0,1,7.24,10.7Z"/><path d="M266,103.8,256.73,87h-2.59V103.8H243.32V59.38h18.16a20.08,20.08,0,0,1,9,1.83,12.69,12.69,0,0,1,5.53,5,14,14,0,0,1,1.84,7.12,13.25,13.25,0,0,1-2.5,7.91,13.5,13.5,0,0,1-7.37,4.94l10.25,17.59ZM254.14,79.38h6.71a6.14,6.14,0,0,0,4.46-1.46,5.5,5.5,0,0,0,1.49-4.11,5.33,5.33,0,0,0-1.49-4,6.14,6.14,0,0,0-4.46-1.46h-6.71Z"/><path d="M295.21,59.38V86a8.84,8.84,0,0,0,2,6.14,7.42,7.42,0,0,0,5.76,2.15,7.63,7.63,0,0,0,5.83-2.15,8.63,8.63,0,0,0,2-6.14V59.38H321.6V85.89A18.87,18.87,0,0,1,319.07,96a16.2,16.2,0,0,1-6.8,6.2,21.43,21.43,0,0,1-9.53,2.09,20.91,20.91,0,0,1-9.4-2.06,15.4,15.4,0,0,1-6.55-6.2,19.84,19.84,0,0,1-2.4-10.1V59.38Z"/><path d="M361.29,80.74a13,13,0,0,1-5.45,5.15,19.12,19.12,0,0,1-9.11,2H340V103.8H329.2V59.38h17.53a20,20,0,0,1,9,1.83,12.66,12.66,0,0,1,5.5,5.06,14.68,14.68,0,0,1,1.84,7.41A14.34,14.34,0,0,1,361.29,80.74Zm-10.76-2.95a6.32,6.32,0,0,0,0-8.22,6.48,6.48,0,0,0-4.62-1.46H340V79.25h5.89A6.48,6.48,0,0,0,350.53,77.79Z"/><path d="M378.21,101.34a21.81,21.81,0,0,1-8.29-8.14,23.91,23.91,0,0,1,0-23.44,22,22,0,0,1,8.29-8.11,24.14,24.14,0,0,1,23,0,21.51,21.51,0,0,1,8.23,8.11,24.25,24.25,0,0,1,0,23.44,21.56,21.56,0,0,1-8.22,8.14,24.08,24.08,0,0,1-23,0Zm20-10.51a13.45,13.45,0,0,0,3.2-9.37q0-5.88-3.2-9.39a10.91,10.91,0,0,0-8.51-3.52A11.07,11.07,0,0,0,381.13,72q-3.19,3.48-3.2,9.43t3.2,9.4a11,11,0,0,0,8.57,3.51A10.89,10.89,0,0,0,398.21,90.83Z"/><path d="M433.11,93.27H451V103.8H419.46v-56h13.65Z"/><path d="M494,51.27a25.07,25.07,0,0,1,10.26,9.86,29,29,0,0,1,3.63,14.65,29.06,29.06,0,0,1-3.63,14.61,24.9,24.9,0,0,1-10.3,9.9,32.66,32.66,0,0,1-15.45,3.51h-21v-56h21A32.63,32.63,0,0,1,494,51.27Zm-4.31,36.49q4.32-4.23,4.31-12t-4.31-12.06q-4.31-4.3-12.06-4.31H471.2V92h6.46Q485.42,92,489.72,87.76Z"/><path d="M550.48,93.9H529.56l-3.35,9.9h-14.3l20.28-56H548l20.28,56H553.83ZM547,83.37l-7-20.52-6.87,20.52Z"/><path d="M105.25,115.94l.06,0h0Z"/><path d="M100.09,34.46a36.45,36.45,0,0,0-3.23-2A42.77,42.77,0,0,0,76,27.5a45.71,45.71,0,0,0-23.46,5.93,41.3,41.3,0,0,0-16,17Q30.73,61.54,30.69,76q0,14.91,5.82,26a41.44,41.44,0,0,0,16.28,17.09q10.44,6,24.29,6a51.28,51.28,0,0,0,13.84-1.73,39.38,39.38,0,0,0,6.7-2.51,64.27,64.27,0,0,1-31.32,8.26,56.48,56.48,0,0,1-25.69-6.09C13.15,109,9.72,77.36,9.31,71.17,8.14,53.56,14.44,35.52,27,20.38A84.83,84.83,0,0,1,38.53,9c.94-.51,1.9-1,2.87-1.46A78.79,78.79,0,0,1,76,0q25.16,0,43.68,12.34a63.63,63.63,0,0,1,9.52,7.71"/><path d="M168.1,115.38l-16.55,9.28-8.13-14.19a72.09,72.09,0,0,1-32.8,33.6A74.24,74.24,0,0,1,76,152q-21.52,0-38.88-9.77a70.45,70.45,0,0,1-27.24-27Q0,97.93,0,76T10,36.65a70.43,70.43,0,0,1,27.34-27L38.53,9A84.19,84.19,0,0,0,27,20.38C14.44,35.52,8.14,53.56,9.31,71.17c.41,6.19,3.84,37.8,31.3,51.9a56.52,56.52,0,0,0,25.7,6.09,64.26,64.26,0,0,0,31.31-8.26l.08,0a36.43,36.43,0,0,0,7.33-4.73l.22-.19.06,0h0a44.24,44.24,0,0,0,10.8-13.73l-17.7,4.48L93.94,87.37l48.31-13Z"/><polygon points="160.66 7.92 159.81 25 132.72 35.54 102.89 47.15 61.18 63.38 59.94 57.97 95.59 40.25 124.7 25.79 160.66 7.92"/><polygon points="158.45 51.43 62.97 74.1 62.11 69.52 107.95 52.53 136.45 41.96 158.31 33.86 158.45 51.43"/></g></g></svg>